<svg width="43" height="37" viewBox="0 0 43 37" fill="none" xmlns="http://www.w3.org/2000/svg">
<g opacity="0.2">
<path d="M21.4177 0.91379C19.6251 0.981638 17.2017 3.25178 15.7704 4.68737L17.5291 5.60307L13.0407 5.79894C10.7045 5.91907 9.53651 5.97912 8.58921 6.38964C7.32623 6.93698 3.92701 9.25094 3.32898 10.4937C2.96462 11.251 5.09482 11.502 4.88794 12.8379C4.84018 13.1463 4.79441 13.4417 4.74968 13.711L3.10493 25.0902C2.84214 27.9151 2.71075 29.3275 3.07977 30.4595C3.57174 31.9689 4.66493 33.2065 6.09955 33.8783C7.1755 34.3821 8.58932 34.4216 11.417 34.5005L28.8145 36.5797C31.2517 36.5925 32.4445 36.5925 33.3873 36.3343C36.7271 35.4196 38.6561 32.8789 39.3406 31.6559C39.854 30.7386 40.0316 29.5539 40.3867 27.1844L42.1298 14.8019C42.6046 11.6337 42.2981 9.88927 41.9754 8.81887C41.4781 7.16921 39.5898 5.69785 38.1585 5.2299C37.6204 5.05398 36.4886 4.99063 33.1488 4.99063L30.2638 4.98665V4.50813C30.2638 3.09117 28.9956 0.796631 27.0871 0.796631L21.4177 0.91379Z" fill="#F9C806"/>
<path d="M21.4177 0.91379C19.6251 0.981638 17.2017 3.25178 15.7704 4.68737L17.5291 5.60307L13.0407 5.79894C10.7045 5.91907 9.53651 5.97912 8.58921 6.38964C7.32623 6.93698 3.92701 9.25094 3.32898 10.4937C2.96462 11.251 5.09482 11.502 4.88794 12.8379C4.84018 13.1463 4.79441 13.4417 4.74968 13.711L3.10493 25.0902C2.84214 27.9151 2.71075 29.3275 3.07977 30.4595C3.57174 31.9689 4.66493 33.2065 6.09955 33.8783C7.1755 34.3821 8.58932 34.4216 11.417 34.5005L28.8145 36.5797C31.2517 36.5925 32.4445 36.5925 33.3873 36.3343C36.7271 35.4196 38.6561 32.8789 39.3406 31.6559C39.854 30.7386 40.0316 29.5539 40.3867 27.1844L42.1298 14.8019C42.6046 11.6337 42.2981 9.88927 41.9754 8.81887C41.4781 7.16921 39.5898 5.69785 38.1585 5.2299C37.6204 5.05398 36.4886 4.99063 33.1488 4.99063L30.2638 4.98665V4.50813C30.2638 3.09117 28.9956 0.796631 27.0871 0.796631L21.4177 0.91379Z" fill="white" fill-opacity="0.65"/>
<path d="M21.4177 0.91379C19.6251 0.981638 17.2017 3.25178 15.7704 4.68737L17.5291 5.60307L13.0407 5.79894C10.7045 5.91907 9.53651 5.97912 8.58921 6.38964C7.32623 6.93698 3.92701 9.25094 3.32898 10.4937C2.96462 11.251 5.09482 11.502 4.88794 12.8379C4.84018 13.1463 4.79441 13.4417 4.74968 13.711L3.10493 25.0902C2.84214 27.9151 2.71075 29.3275 3.07977 30.4595C3.57174 31.9689 4.66493 33.2065 6.09955 33.8783C7.1755 34.3821 8.58932 34.4216 11.417 34.5005L28.8145 36.5797C31.2517 36.5925 32.4445 36.5925 33.3873 36.3343C36.7271 35.4196 38.6561 32.8789 39.3406 31.6559C39.854 30.7386 40.0316 29.5539 40.3867 27.1844L42.1298 14.8019C42.6046 11.6337 42.2981 9.88927 41.9754 8.81887C41.4781 7.16921 39.5898 5.69785 38.1585 5.2299C37.6204 5.05398 36.4886 4.99063 33.1488 4.99063L30.2638 4.98665V4.50813C30.2638 3.09117 28.9956 0.796631 27.0871 0.796631L21.4177 0.91379Z" fill="url(#paint0_linear)"/>
<path d="M19.1455 2.89158C17.353 2.95943 15.4726 4.38801 14.9529 6.10939L14.6773 7.64946L10.1889 7.84534C7.85268 7.96547 6.68464 8.02552 5.73734 8.43604C4.47437 8.98338 3.45007 9.96861 2.85204 11.2114C2.48768 11.9686 2.24295 13.5484 2.03607 14.8843C1.98832 15.1927 1.94254 15.4881 1.89781 15.7574L0.253061 27.1366C-0.00972565 29.9615 -0.141119 31.3739 0.227901 32.5059C0.719869 34.0153 1.81307 35.2529 3.24768 35.9247C4.32364 36.4285 5.73746 36.468 8.56515 36.5469L28.8033 36.5606C31.2405 36.5734 32.4333 36.5734 33.3761 36.3152C34.697 35.8547 35.8042 34.9253 36.4888 33.7023C37.0022 32.785 37.1797 31.6003 37.5348 29.2308L39.2779 16.8483C39.7527 13.6801 39.9398 11.9292 39.6172 10.8588C39.1198 9.20912 37.9101 7.87069 36.3218 7.21295C35.296 6.78811 33.3875 6.90463 30.2862 6.90463H27.6621V5.94759C27.6621 4.27274 26.4115 2.66325 24.5853 2.73237L19.1455 2.89158Z" fill="#F9C806"/>
<path d="M19.1455 2.89158C17.353 2.95943 15.4726 4.38801 14.9529 6.10939L14.6773 7.64946L10.1889 7.84534C7.85268 7.96547 6.68464 8.02552 5.73734 8.43604C4.47437 8.98338 3.45007 9.96861 2.85204 11.2114C2.48768 11.9686 2.24295 13.5484 2.03607 14.8843C1.98832 15.1927 1.94254 15.4881 1.89781 15.7574L0.253061 27.1366C-0.00972565 29.9615 -0.141119 31.3739 0.227901 32.5059C0.719869 34.0153 1.81307 35.2529 3.24768 35.9247C4.32364 36.4285 5.73746 36.468 8.56515 36.5469L28.8033 36.5606C31.2405 36.5734 32.4333 36.5734 33.3761 36.3152C34.697 35.8547 35.8042 34.9253 36.4888 33.7023C37.0022 32.785 37.1797 31.6003 37.5348 29.2308L39.2779 16.8483C39.7527 13.6801 39.9398 11.9292 39.6172 10.8588C39.1198 9.20912 37.9101 7.87069 36.3218 7.21295C35.296 6.78811 33.3875 6.90463 30.2862 6.90463H27.6621V5.94759C27.6621 4.27274 26.4115 2.66325 24.5853 2.73237L19.1455 2.89158Z" fill="url(#paint1_linear)"/>
<path d="M32.7029 15.6693C31.2364 15.3484 30.3507 13.6947 30.6698 12.2277C30.9889 10.7607 32.392 10.0359 33.8585 10.3568C35.325 10.6777 35.983 12.0336 35.897 13.532C35.791 15.3818 34.1694 15.9902 32.7029 15.6693Z" fill="#764701" fill-opacity="0.5"/>
<path d="M27.6619 6.90469L30.2637 4.98657L36.25 4.99058L33.6389 6.88206L27.6619 6.90469Z" fill="url(#paint2_linear)"/>
<path fill-rule="evenodd" clip-rule="evenodd" d="M38.9016 19.521L24.5608 14.5613L14.5414 31.5491L21.0559 36.5555L28.8033 36.5608C31.2404 36.5736 32.4332 36.5736 33.3761 36.3153C34.697 35.8549 35.8042 34.9254 36.4887 33.7024C37.0021 32.7852 37.1797 31.6005 37.5348 29.231L38.9016 19.521Z" fill="url(#paint3_linear)" fill-opacity="0.6"/>
<path d="M27.064 27.464C24.3388 32.2311 17.8193 33.5824 13.2819 30.9367C8.74453 28.291 7.90745 22.6503 10.6327 17.8832C13.3579 13.1161 18.6265 12.2456 23.5317 14.1127C29.5871 16.4177 29.7892 22.6969 27.064 27.464Z" fill="#764701"/>
<path d="M27.064 27.464C24.3388 32.2311 17.8193 33.5824 13.2819 30.9367C8.74453 28.291 7.90745 22.6503 10.6327 17.8832C13.3579 13.1161 18.6265 12.2456 23.5317 14.1127C29.5871 16.4177 29.7892 22.6969 27.064 27.464Z" fill="white" fill-opacity="0.4"/>
<path d="M26.5293 22.5682C26.5293 27.0449 22.3979 30.674 18.0488 30.674C13.6998 30.674 10.7799 27.0449 10.7799 22.5682C10.7799 18.0915 14.2096 15.3147 18.5031 14.6153C23.8034 13.7519 26.5293 18.0915 26.5293 22.5682Z" fill="url(#paint4_linear)"/>
<path d="M26.5293 22.5682C26.5293 27.0449 22.3979 30.674 18.0488 30.674C13.6998 30.674 10.7799 27.0449 10.7799 22.5682C10.7799 18.0915 14.2096 15.3147 18.5031 14.6153C23.8034 13.7519 26.5293 18.0915 26.5293 22.5682Z" fill="url(#paint5_linear)" fill-opacity="0.74"/>
<path fill-rule="evenodd" clip-rule="evenodd" d="M20.318 17.469C20.3993 18.3664 19.8003 18.8199 19.2754 18.8678C17.4962 19.03 15.6351 19.5956 14.8311 21.4101C14.6171 21.8931 13.8483 22.0974 13.5313 21.9561C13.0469 21.7402 12.8731 21.1157 13.0871 20.6327C14.1915 18.1403 16.4631 16.6998 18.8824 16.4793C19.4073 16.4314 20.261 16.8408 20.318 17.469Z" fill="white"/>
</g>
<defs>
<linearGradient id="paint0_linear" x1="21.698" y1="6.18696" x2="54.7578" y2="58.0189" gradientUnits="userSpaceOnUse">
<stop stop-color="#F9C806" stop-opacity="0"/>
<stop offset="1" stop-color="#DAB41D"/>
</linearGradient>
<linearGradient id="paint1_linear" x1="5.84835" y1="14.3219" x2="19.9485" y2="36.5272" gradientUnits="userSpaceOnUse">
<stop stop-color="white" stop-opacity="0.15"/>
<stop offset="1" stop-color="white" stop-opacity="0"/>
</linearGradient>
<linearGradient id="paint2_linear" x1="30.5246" y1="4.99058" x2="33.63" y2="6.65776" gradientUnits="userSpaceOnUse">
<stop stop-color="#DC9815" stop-opacity="0.24"/>
<stop offset="1" stop-color="#F9C806" stop-opacity="0"/>
</linearGradient>
<linearGradient id="paint3_linear" x1="32.5864" y1="19.1073" x2="39.1545" y2="25.048" gradientUnits="userSpaceOnUse">
<stop stop-color="#DC9815" stop-opacity="0.35"/>
<stop offset="1" stop-color="#F9C806" stop-opacity="0"/>
</linearGradient>
<linearGradient id="paint4_linear" x1="13.8843" y1="15.5614" x2="23.8791" y2="30.3802" gradientUnits="userSpaceOnUse">
<stop stop-color="#06BFF9"/>
<stop offset="1" stop-color="white"/>
</linearGradient>
<linearGradient id="paint5_linear" x1="26.3642" y1="26.5244" x2="-58.5193" y2="-41.1819" gradientUnits="userSpaceOnUse">
<stop stop-color="white"/>
<stop offset="1" stop-color="white" stop-opacity="0.2"/>
</linearGradient>
</defs>
</svg>
