<svg width="110" height="50" viewBox="0 0 110 50" fill="none" xmlns="http://www.w3.org/2000/svg">
<path d="M90.6481 16.4243C88.9928 16.4867 86.755 18.5726 85.4333 19.8917L87.0573 20.7331L82.9127 20.9131C80.7554 21.0234 79.6768 21.0786 78.8021 21.4558C77.6359 21.9587 74.497 24.0849 73.9448 25.2269C73.6083 25.9226 75.5753 26.1533 75.3843 27.3808C75.3402 27.6642 75.2979 27.9356 75.2566 28.1831L73.7379 38.6388C73.4952 41.2345 73.3739 42.5323 73.7146 43.5724C74.1689 44.9593 75.1784 46.0965 76.5031 46.7138C77.4967 47.1767 78.8022 47.213 81.4133 47.2855L97.4783 49.196C99.7288 49.2077 100.83 49.2077 101.701 48.9705C104.785 48.13 106.566 45.7954 107.198 44.6717C107.672 43.8289 107.836 42.7403 108.164 40.5631L109.774 29.1854C110.212 26.2743 109.929 24.6714 109.631 23.6879C109.172 22.1721 107.428 20.8202 106.107 20.3902C105.61 20.2285 104.565 20.1703 101.481 20.1703L98.8166 20.1667V19.727C98.8166 18.425 97.6456 16.3167 95.8833 16.3167L90.6481 16.4243Z" fill="#F9C806"/>
<path d="M90.6481 16.4243C88.9928 16.4867 86.755 18.5726 85.4333 19.8917L87.0573 20.7331L82.9127 20.9131C80.7554 21.0234 79.6768 21.0786 78.8021 21.4558C77.6359 21.9587 74.497 24.0849 73.9448 25.2269C73.6083 25.9226 75.5753 26.1533 75.3843 27.3808C75.3402 27.6642 75.2979 27.9356 75.2566 28.1831L73.7379 38.6388C73.4952 41.2345 73.3739 42.5323 73.7146 43.5724C74.1689 44.9593 75.1784 46.0965 76.5031 46.7138C77.4967 47.1767 78.8022 47.213 81.4133 47.2855L97.4783 49.196C99.7288 49.2077 100.83 49.2077 101.701 48.9705C104.785 48.13 106.566 45.7954 107.198 44.6717C107.672 43.8289 107.836 42.7403 108.164 40.5631L109.774 29.1854C110.212 26.2743 109.929 24.6714 109.631 23.6879C109.172 22.1721 107.428 20.8202 106.107 20.3902C105.61 20.2285 104.565 20.1703 101.481 20.1703L98.8166 20.1667V19.727C98.8166 18.425 97.6456 16.3167 95.8833 16.3167L90.6481 16.4243Z" fill="white" fill-opacity="0.65"/>
<path d="M90.6481 16.4243C88.9928 16.4867 86.755 18.5726 85.4333 19.8917L87.0573 20.7331L82.9127 20.9131C80.7554 21.0234 79.6768 21.0786 78.8021 21.4558C77.6359 21.9587 74.497 24.0849 73.9448 25.2269C73.6083 25.9226 75.5753 26.1533 75.3843 27.3808C75.3402 27.6642 75.2979 27.9356 75.2566 28.1831L73.7379 38.6388C73.4952 41.2345 73.3739 42.5323 73.7146 43.5724C74.1689 44.9593 75.1784 46.0965 76.5031 46.7138C77.4967 47.1767 78.8022 47.213 81.4133 47.2855L97.4783 49.196C99.7288 49.2077 100.83 49.2077 101.701 48.9705C104.785 48.13 106.566 45.7954 107.198 44.6717C107.672 43.8289 107.836 42.7403 108.164 40.5631L109.774 29.1854C110.212 26.2743 109.929 24.6714 109.631 23.6879C109.172 22.1721 107.428 20.8202 106.107 20.3902C105.61 20.2285 104.565 20.1703 101.481 20.1703L98.8166 20.1667V19.727C98.8166 18.425 97.6456 16.3167 95.8833 16.3167L90.6481 16.4243Z" fill="url(#paint0_linear)"/>
<path d="M88.5499 18.2417C86.8946 18.304 85.1582 19.6167 84.6784 21.1984L84.4239 22.6135L80.2792 22.7934C78.122 22.9038 77.0434 22.959 76.1686 23.3362C75.0024 23.8391 74.0566 24.7444 73.5043 25.8863C73.1679 26.5821 72.9419 28.0337 72.7509 29.2612C72.7068 29.5446 72.6645 29.816 72.6232 30.0634L71.1044 40.5192C70.8617 43.1149 70.7404 44.4127 71.0812 45.4528C71.5355 46.8397 72.5449 47.9769 73.8697 48.5941C74.8632 49.0571 76.1688 49.0933 78.7799 49.1658L97.468 49.1785C99.7185 49.1902 100.82 49.1902 101.691 48.953C102.91 48.5298 103.933 47.6758 104.565 46.5521C105.039 45.7092 105.203 44.6207 105.531 42.4435L107.14 31.0658C107.579 28.1547 107.752 26.5459 107.454 25.5623C106.994 24.0465 105.877 22.8167 104.411 22.2124C103.463 21.822 101.701 21.9291 98.8373 21.9291H96.4142V21.0497C96.4142 19.5108 95.2593 18.0319 93.573 18.0954L88.5499 18.2417Z" fill="#F9C806"/>
<path d="M88.5499 18.2417C86.8946 18.304 85.1582 19.6167 84.6784 21.1984L84.4239 22.6135L80.2792 22.7934C78.122 22.9038 77.0434 22.959 76.1686 23.3362C75.0024 23.8391 74.0566 24.7444 73.5043 25.8863C73.1679 26.5821 72.9419 28.0337 72.7509 29.2612C72.7068 29.5446 72.6645 29.816 72.6232 30.0634L71.1044 40.5192C70.8617 43.1149 70.7404 44.4127 71.0812 45.4528C71.5355 46.8397 72.5449 47.9769 73.8697 48.5941C74.8632 49.0571 76.1688 49.0933 78.7799 49.1658L97.468 49.1785C99.7185 49.1902 100.82 49.1902 101.691 48.953C102.91 48.5298 103.933 47.6758 104.565 46.5521C105.039 45.7092 105.203 44.6207 105.531 42.4435L107.14 31.0658C107.579 28.1547 107.752 26.5459 107.454 25.5623C106.994 24.0465 105.877 22.8167 104.411 22.2124C103.463 21.822 101.701 21.9291 98.8373 21.9291H96.4142V21.0497C96.4142 19.5108 95.2593 18.0319 93.573 18.0954L88.5499 18.2417Z" fill="url(#paint1_linear)"/>
<path d="M30.1881 37.5571C30.6463 37.5571 30.9988 37.7667 31.2455 38.1857C31.5275 38.6048 31.6685 39.1809 31.6685 39.9143C31.6685 41.3111 31.3336 42.3936 30.664 43.1619C29.0779 45.0825 27.4742 46.619 25.8529 47.7714C24.2316 48.9238 22.3107 49.5 20.0902 49.5C17.3762 49.5 15.191 48.7317 13.5344 47.1952C11.8779 45.6587 11.0496 43.6159 11.0496 41.0667C11.0496 39.7048 11.7545 38.727 13.1644 38.1333C14.7152 37.4698 15.8254 36.7714 16.4951 36.0381C17.1648 35.2698 17.4996 34.3444 17.4996 33.2619C17.4996 32.6333 17.3586 32.1619 17.0767 31.8476C16.8299 31.5333 16.5127 31.3762 16.125 31.3762C15.1734 31.3762 14.116 32.0571 12.9529 33.419C11.825 34.7809 10.7676 36.5444 9.78075 38.7095C8.79386 40.8397 8.01845 43.0397 7.45451 45.3095C7.06681 46.9508 6.60861 48.0682 6.07992 48.6619C5.58648 49.2206 4.79345 49.5 3.70082 49.5C2.6082 49.5 1.79754 49.1159 1.26885 48.3476C0.77541 47.5444 0.440574 46.3222 0.264344 44.6809C0.0881148 43.0397 0 40.6302 0 37.4524C0 32.0746 0.546312 26.4698 1.63894 20.6381C2.76681 14.8063 4.40574 9.91746 6.55574 5.97143C8.74099 1.99048 11.3492 0 14.3803 0C16.0017 0 17.3058 0.698413 18.2926 2.09524C19.3148 3.45714 19.8258 5.23809 19.8258 7.43809C19.8258 10.9651 18.7861 14.6317 16.7066 18.4381C14.6271 22.2095 11.2435 26.627 6.55574 31.6905C6.45001 33.5063 6.39714 35.3746 6.39714 37.2952C8.08894 32.9302 10.0275 29.7698 12.2127 27.8143C14.398 25.8238 16.4422 24.8286 18.3455 24.8286C20.1078 24.8286 21.5176 25.4222 22.575 26.6095C23.6676 27.7968 24.214 29.2635 24.214 31.0095C24.214 32.9302 23.7205 34.6936 22.7336 36.3C21.7467 37.9063 20.0549 39.3381 17.6582 40.5952C17.7992 41.5381 18.2221 42.3063 18.9271 42.9C19.6672 43.4587 20.5484 43.7381 21.5705 43.7381C22.6631 43.7381 23.7205 43.319 24.7426 42.4809C25.7648 41.6429 27.1041 40.246 28.7607 38.2905C29.1836 37.8016 29.6595 37.5571 30.1881 37.5571ZM13.2701 5.18572C12.6357 5.18572 11.9307 6.09365 11.1553 7.90952C10.3799 9.69048 9.62214 12.1175 8.88197 15.1905C8.17706 18.2286 7.5955 21.546 7.1373 25.1429C9.32255 22.5936 11.1201 19.8175 12.5299 16.8143C13.975 13.8111 14.6976 11.0873 14.6976 8.64286C14.6976 7.5254 14.5742 6.66984 14.3275 6.07619C14.0807 5.48254 13.7283 5.18572 13.2701 5.18572Z" fill="#4E4E4E"/>
<path d="M35.8305 49.4818C33.6453 49.4818 31.9006 48.6961 30.5965 47.1246C29.2924 45.5532 28.6404 43.4929 28.6404 40.9437C28.6404 38.15 29.2924 35.5135 30.5965 33.0342C31.9006 30.5199 33.6277 28.5119 35.7777 27.0104C37.9629 25.4739 40.2715 24.7056 42.7035 24.7056C43.4789 24.7056 43.99 24.8627 44.2367 25.177C44.5186 25.4564 44.7477 25.9802 44.924 26.7485C45.6641 26.6088 46.4395 26.5389 47.2502 26.5389C48.9773 26.5389 49.8408 27.15 49.8408 28.3723C49.8408 29.1056 49.5764 30.8516 49.0478 33.6104C48.2371 37.6262 47.8318 40.4199 47.8318 41.9913C47.8318 42.5151 47.9551 42.9342 48.2019 43.2484C48.4838 43.5627 48.8363 43.7199 49.2592 43.7199C49.9289 43.7199 50.7396 43.3008 51.6912 42.4627C52.6428 41.5897 53.9293 40.1929 55.5506 38.2723C55.9736 37.7834 56.8626 37.083 57.3913 37.083C57.8495 37.083 57.9692 37.5644 58.2159 37.9834C58.4979 38.4025 58.4584 39.1627 58.4584 39.8961C58.4584 41.2929 58.1236 42.3754 57.4539 43.1437C56.0088 44.9246 54.4756 46.4262 52.8543 47.6484C51.233 48.8707 49.6646 49.4818 48.149 49.4818C46.9859 49.4818 45.9109 49.0977 44.924 48.3294C43.9723 47.5262 43.2498 46.4437 42.7564 45.0818C40.9236 48.0151 38.615 49.4818 35.8305 49.4818ZM37.7338 44.1913C38.5092 44.1913 39.2494 43.7373 39.9543 42.8294C40.6592 41.9215 41.1703 40.7167 41.4875 39.2151L43.4436 29.577C41.9633 29.6119 40.5887 30.1707 39.3199 31.2532C38.0863 32.3008 37.0994 33.6977 36.3592 35.4437C35.6191 37.1897 35.249 39.0405 35.249 40.9961C35.249 42.0786 35.4604 42.8818 35.8834 43.4056C36.3416 43.9294 36.9584 44.1913 37.7338 44.1913Z" fill="#4E4E4E"/>
<path d="M63.3783 21.3715C61.898 21.3715 60.7878 21.0397 60.0476 20.3762C59.3074 19.6778 58.9374 18.7175 58.9374 17.4953C58.9374 16.273 59.4132 15.2603 60.3648 14.4572C61.3517 13.6191 62.5677 13.2 64.0128 13.2C65.3169 13.2 66.3743 13.5143 67.1849 14.1429C67.9956 14.7715 68.4009 15.6619 68.4009 16.8143C68.4009 18.2111 67.9427 19.3286 67.0263 20.1667C66.1099 20.9699 64.8939 21.3715 63.3783 21.3715ZM58.3029 49.5C57.1751 49.5 56.3997 49.273 55.9767 48.8191C55.5538 48.3651 55.3423 47.6492 55.3423 46.6714C55.3423 46.3921 55.3775 45.9032 55.448 45.2048C56.012 38.8143 57.116 32.3714 58.4201 27.1333C58.7021 26.0508 59.1603 25.3 59.7947 24.8809C60.4644 24.427 61.5218 24.2 62.9668 24.2C64.4824 24.2 65.2402 24.8111 65.2402 26.0333C65.2402 26.2079 65.205 26.5396 65.1345 27.0285C63.5484 34.5016 62.4267 41.3984 62.1095 46.4619C62.039 47.5794 61.7042 48.3651 61.105 48.8191C60.5058 49.273 59.5718 49.5 58.3029 49.5Z" fill="#4E4E4E"/>
<path d="M101.069 29.9825C99.7147 29.6876 98.8969 28.1681 99.1915 26.8202C99.4862 25.4722 100.782 24.8063 102.136 25.1011C103.49 25.396 104.098 26.6418 104.018 28.0187C103.92 29.7183 102.423 30.2773 101.069 29.9825Z" fill="#764701" fill-opacity="0.5"/>
<path d="M96.4141 21.9291L98.8167 20.1667L104.344 20.1703L101.933 21.9083L96.4141 21.9291Z" fill="url(#paint2_linear)"/>
<path fill-rule="evenodd" clip-rule="evenodd" d="M106.793 33.5215L93.5504 28.9643L84.2984 44.5735L90.314 49.1737L97.4679 49.1785C99.7184 49.1903 100.82 49.1903 101.69 48.953C102.91 48.5299 103.933 47.6759 104.565 46.5521C105.039 45.7093 105.203 44.6207 105.531 42.4435L106.793 33.5215Z" fill="url(#paint3_linear)" fill-opacity="0.6"/>
<path d="M95.8619 40.82C93.3454 45.2003 87.3252 46.4419 83.1354 44.0109C78.9455 41.5799 78.1725 36.3969 80.689 32.0167C83.2055 27.6365 88.0705 26.8366 92.6001 28.5522C98.1917 30.6701 98.3784 36.4398 95.8619 40.82Z" fill="#764701"/>
<path d="M95.8619 40.82C93.3454 45.2003 87.3252 46.4419 83.1354 44.0109C78.9455 41.5799 78.1725 36.3969 80.689 32.0167C83.2055 27.6365 88.0705 26.8366 92.6001 28.5522C98.1917 30.6701 98.3784 36.4398 95.8619 40.82Z" fill="white" fill-opacity="0.4"/>
<path d="M95.3681 36.3215C95.3681 40.4349 91.5532 43.7695 87.5372 43.7695C83.5212 43.7695 80.825 40.4349 80.825 36.3215C80.825 32.2081 83.992 29.6566 87.9567 29.014C92.851 28.2207 95.3681 32.2081 95.3681 36.3215Z" fill="url(#paint4_linear)"/>
<path d="M95.3681 36.3215C95.3681 40.4349 91.5532 43.7695 87.5372 43.7695C83.5212 43.7695 80.825 40.4349 80.825 36.3215C80.825 32.2081 83.992 29.6566 87.9567 29.014C92.851 28.2207 95.3681 32.2081 95.3681 36.3215Z" fill="url(#paint5_linear)" fill-opacity="0.74"/>
<path fill-rule="evenodd" clip-rule="evenodd" d="M89.6326 31.6361C89.7077 32.4607 89.1546 32.8774 88.6699 32.9214C87.0269 33.0705 85.3084 33.5902 84.566 35.2573C84.3683 35.7012 83.6584 35.8889 83.3657 35.7591C82.9184 35.5607 82.7579 34.9869 82.9556 34.543C83.9754 32.253 86.073 30.9294 88.307 30.7267C88.7917 30.6827 89.58 31.0589 89.6326 31.6361Z" fill="white"/>
<defs>
<linearGradient id="paint0_linear" x1="90.9069" y1="21.2696" x2="121.22" y2="69.0314" gradientUnits="userSpaceOnUse">
<stop stop-color="#F9C806" stop-opacity="0"/>
<stop offset="1" stop-color="#DAB41D"/>
</linearGradient>
<linearGradient id="paint1_linear" x1="76.2711" y1="28.7444" x2="89.1996" y2="49.2057" gradientUnits="userSpaceOnUse">
<stop stop-color="white" stop-opacity="0.15"/>
<stop offset="1" stop-color="white" stop-opacity="0"/>
</linearGradient>
<linearGradient id="paint2_linear" x1="99.0576" y1="20.1703" x2="101.919" y2="21.714" gradientUnits="userSpaceOnUse">
<stop stop-color="#DC9815" stop-opacity="0.24"/>
<stop offset="1" stop-color="#F9C806" stop-opacity="0"/>
</linearGradient>
<linearGradient id="paint3_linear" x1="100.961" y1="33.1414" x2="106.999" y2="38.6297" gradientUnits="userSpaceOnUse">
<stop stop-color="#DC9815" stop-opacity="0.35"/>
<stop offset="1" stop-color="#F9C806" stop-opacity="0"/>
</linearGradient>
<linearGradient id="paint4_linear" x1="83.6916" y1="29.8833" x2="92.8583" y2="43.5417" gradientUnits="userSpaceOnUse">
<stop stop-color="#06BFF9"/>
<stop offset="1" stop-color="white"/>
</linearGradient>
<linearGradient id="paint5_linear" x1="95.2158" y1="39.9567" x2="17.1356" y2="-22.6322" gradientUnits="userSpaceOnUse">
<stop stop-color="white"/>
<stop offset="1" stop-color="white" stop-opacity="0.2"/>
</linearGradient>
</defs>
</svg>
